:SAMPLES-PER-SECOND 30
:FRAME-RANGE 1-3358
:FULLY-SPECIFIED
:DEGREES
1155
root  45.388 38.0809 -54.2528 2.94814 18.5817 3.85229
RightUpLeg  -23.5717 -2.55159 4.36161
RightLeg  5.14122 -23.0372 2.19156
RightFoot  -4.48793 -0.477034 7.44471
RightToes  -5.8209e-011 0 -3.6325e-017
Spine  8.86246 -2.94464 -4.77032
Spine1  -3.37154 -3.2774 0.290383
HEad  -5.6521 -13.1207 3.5067
LeftShoulder1  1.60656 -1.21551 -27.9465
LeftArm  4.47386 -30.2935 -23.4451
LeftForeArm  4.60551 -12.9601 -12.7835
LeftHand  0.253316 -2.53477 -3.51817
RightShoulder  1.35232 -0.865423 45.1382
RightArm  37.7619 -12.1313 14.3813
RightForeArm  -27.0857 23.3994 6.44138
RightHand  0.657953 5.19988 6.88293
LeftUpLeg  15.7511 11.5209 1.67292
LeftLeg  7.99413 14.7383 -2.48037
LeftFoot  -20.1507 -1.11143 -15.9026
LeftToes  -4.03819e-010 -8.71445e-011 8.52097e-011
1156
root  46.1766 37.8805 -53.007 2.40619 18.6905 3.10138
RightUpLeg  -25.3456 -7.29177 8.01448
RightLeg  11.7726 -17.665 -1.34091
RightFoot  -1.87073 0.28245 -3.55954
RightToes  -5.8209e-011 0 -3.6325e-017
Spine  8.65407 -3.03274 -3.14699
Spine1  -2.55923 -3.67413 1.31755
HEad  -4.89624 -12.3919 1.97099
LeftShoulder1  1.63926 -1.26568 -28.283
LeftArm  11.1249 -29.8669 -25.7584
LeftForeArm  1.44594 -15.6146 -11.1072
LeftHand  0.263952 -2.80343 -3.53174
RightShoulder  1.24472 -1.09279 45.5249
RightArm  35.7819 -12.3851 13.6768
RightForeArm  -26.9979 25.2297 6.64968
RightHand  0.675958 4.75688 7.41711
LeftUpLeg  18.3758 11.9734 3.11615
LeftLeg  8.62391 13.1399 -2.87223
LeftFoot  -20.3715 -1.2747 -17.561
LeftToes  -4.03819e-010 -8.71445e-011 8.52097e-011
1157
root  46.9435 37.7273 -51.6423 1.84703 17.8493 1.53625
RightUpLeg  -27.2547 -10.0151 11.8859
RightLeg  18.827 -12.9935 -5.07234
RightFoot  -1.8295 0.762398 -9.28268
RightToes  -5.8209e-011 0 -3.6325e-017
Spine  8.632 -2.85695 -0.309259
Spine1  -2.64733 -3.46134 1.75208
HEad  -3.70308 -11.5253 0.415872
LeftShoulder1  1.62409 -1.12519 -29.0131
LeftArm  17.7368 -28.1396 -27.9914
LeftForeArm  -0.596704 -17.7747 -9.41995
LeftHand  0.263996 -3.09092 -3.38997
RightShoulder  1.33955 -0.960886 46.4518
RightArm  35.1787 -11.7025 13.0686
RightForeArm  -27.7108 25.7273 6.79536
RightHand  0.708154 4.64391 7.87832
LeftUpLeg  20.1891 14.6718 6.18878
LeftLeg  11.2905 9.75013 -2.55509
LeftFoot  -19.8996 -1.46561 -20.9613
LeftToes  -4.03819e-010 -8.71445e-011 8.52097e-011
1158
root  47.6158 37.5673 -50.3007 1.2562 16.1284 0.652832
RightUpLeg  -27.2967 -7.292 11.9234
RightLeg  24.7858 -14.1774 -7.24997
RightFoot  -3.88669 0.651488 -10.3638
RightToes  -5.8209e-011 0 -3.6325e-017
Spine  8.98473 -2.5808 1.47982
Spine1  -2.82091 -3.0209 2.04262
HEad  -2.70454 -10.1325 -0.511942
LeftShoulder1  1.59709 -0.984627 -29.5182
LeftArm  23.3739 -24.8748 -29.6759
LeftForeArm  -2.32822 -19.5722 -7.84663
LeftHand  0.2976 -3.40477 -3.68909
RightShoulder  2.21153 0.557026 47.8591
RightArm  36.187 -10.052 12.6166
RightForeArm  -29.6264 24.4799 6.57268
RightHand  0.757506 4.92802 8.19478
LeftUpLeg  21.245 24.8068 11.5811
LeftLeg  18.0208 -0.651685 -0.572356
LeftFoot  -17.5068 -1.31785 -25.9867
LeftToes  -4.03819e-010 -8.71445e-011 8.52097e-011
1159
root  48.1562 37.4538 -49.0575 0.762076 14.9564 -0.488525
RightUpLeg  -26.5919 -7.53804 12.8898
RightLeg  28.3911 -13.0636 -7.76867
RightFoot  -6.90401 0.359652 -10.4443
RightToes  -5.8209e-011 0 -3.6325e-017
Spine  9.02737 -2.52331 3.4298
Spine1  -2.13189 -2.77676 2.58006
HEad  -1.93962 -9.1103 -0.567219
LeftShoulder1  1.59243 -0.964768 -29.5726
LeftArm  26.9303 -21.5941 -31.3438
LeftForeArm  -2.59828 -19.675 -7.81215
LeftHand  0.337201 -3.57708 -4.11813
RightShoulder  3.31801 2.43725 48.9991
RightArm  36.0352 -8.27445 12.8709
RightForeArm  -31.1459 23.5793 6.60038
RightHand  0.684986 4.68874 7.57511
LeftUpLeg  17.3282 22.7711 12.2774
LeftLeg  28.5825 0.894134 0.872826
LeftFoot  -10.1313 0.388811 -30.4569
LeftToes  -4.03819e-010 -8.71445e-011 8.52097e-011
1160
root  48.6186 37.3384 -47.9663 0.822725 14.2858 -2.21381
RightUpLeg  -26.1515 -8.13014 14.4517
RightLeg  30.5349 -11.9182 -7.737
RightFoot  -9.42364 0.102616 -9.88966
RightToes  -5.8209e-011 0 -3.6325e-017
Spine  8.63617 -2.49137 6.43579
Spine1  -1.52165 -2.24876 2.55647
HEad  -1.16307 -9.03335 -0.758474
LeftShoulder1  1.59996 -0.987512 -29.5599
LeftArm  27.8356 -19.5143 -33.0026
LeftForeArm  -0.725355 -17.6363 -9.79331
LeftHand  0.407078 -3.7582 -4.90962
RightShoulder  4.20134 3.90994 49.6865
RightArm  33.9535 -6.7038 13.6494
RightForeArm  -30.1288 23.8692 6.50982
RightHand  0.603187 4.50754 6.77171
LeftUpLeg  9.55289 18.6414 12.109
LeftLeg  41.4315 1.49713 1.80193
LeftFoot  1.65214 2.67816 -23.3176
LeftToes  -4.03819e-010 -8.71445e-011 8.52097e-011
1161
root  49.0442 37.1817 -47.0397 0.569903 13.5367 -3.96368
RightUpLeg  -25.4514 -8.16223 15.8727
RightLeg  32.493 -11.2698 -7.89603
RightFoot  -11.8051 -0.115225 -8.79521
RightToes  -5.8209e-011 0 -3.6325e-017
Spine  9.13669 -2.40589 9.56643
Spine1  -1.12283 -1.47478 2.40543
HEad  -0.704677 -9.17093 -0.431924
LeftShoulder1  1.60349 -0.98155 -29.688
LeftArm  25.8171 -18.0751 -34.0144
LeftForeArm  2.28634 -14.3877 -12.5919
LeftHand  0.494221 -3.68805 -6.06564
RightShoulder  5.14229 5.37656 50.7418
RightArm  31.6098 -4.45862 13.6801
RightForeArm  -27.4292 25.0449 6.62269
RightHand  0.575074 4.73486 6.28396
LeftUpLeg  1.90888 14.8877 12.411
LeftLeg  52.5088 -0.0217748 0.428739
LeftFoot  12.6937 2.87089 -13.7996
LeftToes  -4.03819e-010 -8.71445e-011 8.52097e-011
